PathFileType	4	(X/Y/Z)	/Users/itak/Documents/Research/Walk-IL/dataset/trc/00562_00009.trc
DataRate	CameraRate	NumFrames	NumMarkers	Units	OrigDataRate	OrigDataStartFrame	OrigNumFrames
100.000000	100.000000	4	53	mm	100.000000	312	416
Frame#	Time	RPSI			LPSI			L3			STRN			T10			C7			CLAV			RBAK			LBAK			LSHO			LUPA			LAEL			LAOL			LWTS			LWPS			LFRA			LHPS			LHTS			RSHO			RUPA			RAEL			RAOL			RWTS			RWPS			RFRA			RIFD			RHTS			RHPS			RBHD			LFHD			RFHD			LBHD			LHIP			RHIP			RASI			LASI			LKNE			LTHI			LANK			LTIP			LTOE			LMT1			LMT5			LHEE			RKNE			RTHI			RANK			RTIP			RTOE			RMT1			RMT5			RHEE			LIFD			
		X1	Y1	Z1	X2	Y2	Z2	X3	Y3	Z3	X4	Y4	Z4	X5	Y5	Z5	X6	Y6	Z6	X7	Y7	Z7	X8	Y8	Z8	X9	Y9	Z9	X10	Y10	Z10	X11	Y11	Z11	X12	Y12	Z12	X13	Y13	Z13	X14	Y14	Z14	X15	Y15	Z15	X16	Y16	Z16	X17	Y17	Z17	X18	Y18	Z18	X19	Y19	Z19	X20	Y20	Z20	X21	Y21	Z21	X22	Y22	Z22	X23	Y23	Z23	X24	Y24	Z24	X25	Y25	Z25	X26	Y26	Z26	X27	Y27	Z27	X28	Y28	Z28	X29	Y29	Z29	X30	Y30	Z30	X31	Y31	Z31	X32	Y32	Z32	X33	Y33	Z33	X34	Y34	Z34	X35	Y35	Z35	X36	Y36	Z36	X37	Y37	Z37	X38	Y38	Z38	X39	Y39	Z39	X40	Y40	Z40	X41	Y41	Z41	X42	Y42	Z42	X43	Y43	Z43	X44	Y44	Z44	X45	Y45	Z45	X46	Y46	Z46	X47	Y47	Z47	X48	Y48	Z48	X49	Y49	Z49	X50	Y50	Z50	X51	Y51	Z51	X52	Y52	Z52	X53	Y53	Z53	

313	3.12	1037.739379882812	997.15771484375	425.15087890625	1085.126098632812	1000.777221679688	301.2618408203125	1067.4775390625	1104.74853515625	359.5648803710938	1296.297729492188	1291.408081054688	432.4869079589844	1062.364379882812	1229.463745117188	352.5843200683594	1115.427490234375	1502.808959960938	379.6642456054688	1279.861572265625	1402.098266601562	426.9026794433594	1017.805969238281	1383.38916015625	440.5527038574219	1108.190795898438	1449.849975585938	280.0645751953125	1226.636474609375	1477.334716796875	241.529296875	1266.448852539062	1364.254760742188	159.4163665771484	1362.079467773438	1170.89697265625	135.5187683105469	1274.575439453125	1118.966918945312	148.1265106201172	1541.610595703125	1029.359497070312	253.0585784912109	1551.704223632812	990.4512939453125	175.2067108154297	1425.671752929688	1114.475341796875	149.4599914550781	1594.11474609375	952.666015625	193.4936370849609	1609.167236328125	986.0189208984375	251.7219696044922	1123.046752929688	1471.322021484375	544.738037109375	1079.442260742188	1413.307983398438	601.906005859375	1022.138916015625	1138.303466796875	664.3292846679688	974.900146484375	1118.303833007812	624.726318359375	1184.555786132812	937.6826782226562	683.37841796875	1121.378173828125	912.2577514648438	729.1950073242188	1032.453247070312	1084.189208984375	678.37548828125	1207.430786132812	773.3423461914062	688.376708984375	1216.763916015625	851.3795166015625	716.8896484375	1147.112060546875	842.9896240234375	742.369384765625	1204.3740234375	1679.881469726562	483.5195922851562	1385.340698242188	1678.524658203125	381.3504943847656	1340.108154296875	1675.122314453125	519.0860595703125	1262.15380859375	1681.00341796875	328.9686889648438	1254.653930664062	935.614501953125	225.3522796630859	1120.9365234375	940.0549926757812	583.1126098632812	1216.005004882812	981.99462890625	556.63916015625	1308.005126953125	969.001220703125	298.0713195800781	1367.310424804688	510.5514221191406	338.4657897949219	1336.817138671875	672.2306518554688	286.7168884277344	1288.49853515625	36.61966323852539	323.9907531738281	1319.037353515625	254.5455780029297	323.4970397949219	1474.214965820312	37.93779754638672	452.2022094726562	1389.395141601562	46.56051635742188	459.1939697265625	1407.87646484375	35.77840423583984	352.5247192382812	1207.5	33.10846710205078	351.2577514648438	1294.241821289062	525.6168212890625	604.1002197265625	1194.889526367188	802.1712036132812	610.7040405273438	1204.992919921875	41.31244659423828	547.3920288085938	1299.782470703125	376.7749633789062	592.170654296875	1422.947265625	65.13691711425781	582.745361328125	1378.643310546875	61.77555465698242	522.2991333007812	1321.919311523438	48.51986312866211	608.7362060546875	1174.447998046875	32.96353530883789	476.3647155761719	1641.941528320312	898.7850952148438	276.9456481933594	
314	3.13	1043.159423828125	997.5061645507812	429.1454772949219	1089.703735351562	1001.278076171875	304.9015502929688	1072.434936523438	1104.759521484375	363.1298828125	1300.756713867188	1292.258666992188	434.4301452636719	1066.670043945312	1229.501220703125	355.7485656738281	1119.25341796875	1503.114379882812	381.7061767578125	1284.045043945312	1402.9072265625	428.6967468261719	1022.2451171875	1383.556396484375	443.1492004394531	1111.805786132812	1449.943359375	282.1568298339844	1229.948608398438	1477.7265625	243.489501953125	1271.103637695312	1365.486328125	161.3313446044922	1371.139770507812	1174.888427734375	137.5253601074219	1284.943481445312	1120.569946289062	149.1424407958984	1553.643798828125	1039.515991210938	257.4153442382812	1565.789428710938	1000.637329101562	179.8648986816406	1436.193603515625	1120.522338867188	152.1881866455078	1609.153076171875	964.31396484375	198.7025299072266	1622.463745117188	998.338134765625	256.987060546875	1127.404174804688	1472.212768554688	546.7606201171875	1083.9638671875	1414.424560546875	604.2158203125	1026.41064453125	1139.60595703125	667.2633666992188	978.8397827148438	1119.73095703125	627.7706298828125	1188.10009765625	938.462646484375	685.8336791992188	1125.007934570312	913.21435546875	731.8674926757812	1036.530151367188	1085.515869140625	681.319091796875	1210.726318359375	774.1062622070312	690.4274291992188	1220.051879882812	851.8740234375	719.2240600585938	1150.490966796875	843.8330688476562	745.0147705078125	1208.711303710938	1680.588256835938	485.0180053710938	1389.612670898438	1678.975952148438	382.7134094238281	1344.44482421875	1675.577514648438	520.518310546875	1266.37255859375	1681.657470703125	330.4658203125	1258.943603515625	936.348388671875	227.9152221679688	1127.40478515625	939.9105224609375	586.3284301757812	1222.328735351562	982.1896362304688	559.50048828125	1312.689697265625	969.7809448242188	300.2959899902344	1368.44921875	510.1993713378906	339.6557312011719	1339.473999023438	672.2947387695312	288.4871215820312	1288.487670898438	36.55414581298828	323.9400329589844	1319.398681640625	254.443115234375	323.9796752929688	1474.140747070312	37.99221420288086	452.1341552734375	1389.312744140625	46.54179000854492	459.1991577148438	1407.870727539062	35.8289794921875	352.5401611328125	1207.392944335938	32.86980056762695	351.2508850097656	1298.099365234375	524.00048828125	603.5595703125	1200.779907226562	801.2810668945312	612.9639282226562	1211.856567382812	39.65385818481445	550.0416870117188	1304.616088867188	375.4026794433594	591.9226684570312	1431.513671875	59.72038650512695	580.5811157226562	1385.462768554688	58.06588745117188	521.3134765625	1330.31689453125	45.70248413085938	609.1649780273438	1179.617065429688	31.7455883026123	479.4707336425781	1657.751586914062	912.2478637695312	283.1035766601562	
315	3.14	1048.453979492188	997.4581298828125	433.1772766113281	1094.174682617188	1001.476928710938	308.5582275390625	1077.28662109375	1104.396728515625	366.789794921875	1305.076538085938	1292.903198242188	436.3671264648438	1070.83935546875	1229.163208007812	359.0194396972656	1122.791625976562	1503.120727539062	383.8005676269531	1288.028198242188	1403.513305664062	430.4626770019531	1026.466430664062	1383.313354492188	445.8385620117188	1115.117553710938	1449.679565429688	284.3507995605469	1232.931762695312	1477.848022460938	245.4073638916016	1275.350830078125	1366.404663085938	163.2192535400391	1379.694580078125	1178.664428710938	139.5526885986328	1294.867065429688	1122.006225585938	150.1929168701172	1564.89306640625	1049.252075195312	261.5736999511719	1579.042358398438	1010.580993652344	184.2810516357422	1446.116088867188	1126.319946289062	154.8609161376953	1623.312255859375	975.7145385742188	203.6418914794922	1634.87646484375	1010.278259277344	262.0039367675781	1131.515380859375	1472.8046875	548.8080444335938	1088.318969726562	1415.186889648438	606.5792236328125	1030.878173828125	1140.50634765625	670.3642578125	983.012451171875	1120.732788085938	631.0134887695312	1191.787475585938	938.7945556640625	688.4298095703125	1128.813598632812	913.76220703125	734.7205200195312	1040.830444335938	1086.440795898438	684.4404907226562	1214.095703125	774.4100341796875	692.4837646484375	1223.460815429688	851.8900146484375	721.6919555664062	1153.995727539062	844.244140625	747.8198852539062	1212.782104492188	1681.12890625	486.4605102539062	1393.592407226562	1679.248779296875	383.9523010253906	1348.545532226562	1675.883544921875	521.8336791992188	1270.274291992188	1682.0986328125	331.8787231445312	1263.177368164062	936.9180908203125	230.43896484375	1133.816528320312	939.3543090820312	589.5385131835938	1228.604614257812	981.9592895507812	562.3567504882812	1317.312255859375	970.3781127929688	302.494873046875	1369.87109375	509.7796630859375	340.7524719238281	1342.240966796875	672.2416381835938	290.1145629882812	1288.48193359375	36.468505859375	323.8552856445312	1319.893676757812	254.303955078125	324.435546875	1474.045166015625	38.04460144042969	452.0554504394531	1389.215942382812	46.53927230834961	459.1663513183594	1407.860107421875	35.87242126464844	352.5436401367188	1207.286010742188	32.59502792358398	351.2280578613281	1301.7509765625	522.0242309570312	602.9776000976562	1206.75830078125	800.0521850585938	615.0850830078125	1216.378051757812	38.56235504150391	551.54443359375	1308.684692382812	373.6927490234375	591.4112548828125	1437.678955078125	54.39883422851562	578.4349975585938	1390.13671875	54.37562561035156	520.1697998046875	1336.087036132812	43.45165252685547	609.1781616210938	1182.75244140625	30.8367862701416	481.2880859375	1672.6513671875	925.3844604492188	288.8566284179688	
316	3.15	1053.603515625	997.088134765625	437.2186584472656	1098.531127929688	1001.431274414062	312.21240234375	1081.993530273438	1103.735229492188	370.51904296875	1309.267211914062	1293.369750976562	438.3150024414062	1074.895141601562	1228.522094726562	362.3838195800781	1126.086669921875	1502.884765625	385.9657897949219	1291.83642578125	1403.949829101562	432.2214050292969	1030.494506835938	1382.722900390625	448.6317138671875	1118.167236328125	1449.123657226562	286.6630249023438	1235.636840820312	1477.751953125	247.3167572021484	1279.220825195312	1367.05419921875	165.0977325439453	1387.700439453125	1182.21484375	141.5739898681641	1304.281982421875	1123.291870117188	151.2984161376953	1575.3447265625	1058.555053710938	265.5027465820312	1591.418701171875	1020.225830078125	188.4334259033203	1455.393798828125	1131.849487304688	157.4577178955078	1636.548461914062	986.8082275390625	208.2968597412109	1646.396240234375	1021.804626464844	266.744140625	1135.408813476562	1473.130737304688	550.9118041992188	1092.523315429688	1415.615600585938	609.0099487304688	1035.524169921875	1141.02783203125	673.6053466796875	987.40576171875	1121.332153320312	634.425537109375	1195.619384765625	938.7097778320312	691.217529296875	1132.75	913.901611328125	737.7341918945312	1045.331298828125	1086.976440429688	687.709716796875	1217.5283203125	774.2753295898438	694.5927734375	1226.966430664062	851.451171875	724.3265991210938	1157.581298828125	844.217041015625	750.7403564453125	1216.616455078125	1681.535766601562	487.8648681640625	1397.299194335938	1679.398803710938	385.0801086425781	1352.440063476562	1676.103881835938	523.0469360351562	1273.878051757812	1682.359619140625	333.2221069335938	1267.328002929688	937.3425903320312	232.9171142578125	1140.141723632812	938.46728515625	592.7376098632812	1234.802001953125	981.369384765625	565.184814453125	1321.852783203125	970.8123168945312	304.6554260253906	1371.55908203125	509.3041687011719	341.7578430175781	1345.083984375	672.0831909179688	291.5939331054688	1288.481323242188	36.36942291259766	323.7434692382812	1320.510986328125	254.1375579833984	324.8705139160156	1473.93017578125	38.10370635986328	451.9548645019531	1389.105224609375	46.55157852172852	459.0983276367188	1407.84033203125	35.90463256835938	352.5409851074219	1207.1865234375	32.30238723754883	351.1854858398438	1305.119750976562	519.7660522460938	602.3509521484375	1212.734008789062	798.5578002929688	617.041015625	1218.957763671875	37.86709213256836	552.0880126953125	1312.045776367188	371.6915893554688	590.6770629882812	1441.744506835938	49.72429275512695	576.5484008789062	1393.029296875	51.05265045166016	519.0489501953125	1339.623291015625	41.82258987426758	608.9322509765625	1184.287109375	30.00968360900879	482.0043029785156	1686.615600585938	938.1793823242188	294.1878967285156	
